<?xml version="1.0" encoding="utf-8"?>
<!-- Generator: Adobe Illustrator 22.0.1, SVG Export Plug-In . SVG Version: 6.00 Build 0)  -->
<svg version="1.1" id="Слой_1" xmlns="http://www.w3.org/2000/svg" xmlns:xlink="http://www.w3.org/1999/xlink" x="0px" y="0px"
	 viewBox="0 0 595.3 841.9" style="enable-background:new 0 0 595.3 841.9;" xml:space="preserve">
<style type="text/css">
	.st0{fill:#EFBB75;stroke:#000000;stroke-miterlimit:10;}
	.st1{fill:#B17F4A;stroke:#000000;stroke-miterlimit:10;}
	.st2{fill:#8AC37A;stroke:#000000;stroke-miterlimit:10;}
	.st3{fill:#E30613;}
	.st4{fill:#95C11F;stroke:#000000;stroke-miterlimit:10;}
	.st5{fill:#DFF2FD;}
	.st6{fill:#32ABD6;}
	.st7{fill:#706F6F;}
	.st8{fill:#878787;}
	.st9{fill:#C6C6C6;}
	.st10{fill:#9D9D9C;}
</style>
<g>
	<rect x="27.4" y="433.3" class="st0" width="529.5" height="40.3"/>
	<path class="st1" d="M55.8,447.1h-18c-2.2,0-4-1.8-4-4l0,0c0-2.2,1.8-4,4-4h18c2.2,0,4,1.8,4,4l0,0C59.8,445.3,58,447.1,55.8,447.1
		z"/>
	<circle class="st1" cx="80" cy="458" r="4.5"/>
	<path class="st1" d="M120.7,470.5h-18c-2.2,0-4-1.8-4-4l0,0c0-2.2,1.8-4,4-4h18c2.2,0,4,1.8,4,4l0,0
		C124.7,468.7,122.9,470.5,120.7,470.5z"/>
	<path class="st1" d="M155,444.5h-22.6c-2.2,0-4-1.8-4-4l0,0c0-2.2,1.8-4,4-4H155c2.2,0,4,1.8,4,4l0,0
		C158.9,442.7,157.2,444.5,155,444.5z"/>
	<circle class="st1" cx="135.9" cy="457.9" r="2.8"/>
	<path class="st1" d="M174.3,461.9h-13.5c-2.2,0-4-1.8-4-4v0c0-2.2,1.8-4,4-4h13.5c2.2,0,4,1.8,4,4v0
		C178.3,460.1,176.5,461.9,174.3,461.9z"/>
	<circle class="st1" cx="197.2" cy="466" r="4.5"/>
	<circle class="st1" cx="329.5" cy="444.5" r="3.4"/>
	<path class="st1" d="M307.7,447.7h-39.3c-2.2,0-4-1.8-4-4l0,0c0-2.2,1.8-4,4-4h39.3c2.2,0,4,1.8,4,4l0,0
		C311.6,445.9,309.9,447.7,307.7,447.7z"/>
	<path class="st1" d="M338.3,468.7h-10.7c-2.2,0-4-1.8-4-4v0c0-2.2,1.8-4,4-4h10.7c2.2,0,4,1.8,4,4v0
		C342.2,466.9,340.5,468.7,338.3,468.7z"/>
	<circle class="st1" cx="242.4" cy="451.9" r="6.5"/>
	<path class="st1" d="M216.5,451.9h-18.2c-2.2,0-4-1.8-4-4l0,0c0-2.2,1.8-4,4-4h18.2c2.2,0,4,1.8,4,4l0,0
		C220.4,450.1,218.7,451.9,216.5,451.9z"/>
	<path class="st1" d="M274.2,468.7h-10.7c-2.2,0-4-1.8-4-4v0c0-2.2,1.8-4,4-4h10.7c2.2,0,4,1.8,4,4v0
		C278.2,466.9,276.4,468.7,274.2,468.7z"/>
	<path class="st1" d="M61.2,470.5H55c-2.2,0-4-1.8-4-4l0,0c0-2.2,1.8-4,4-4h6.2c2.2,0,4,1.8,4,4l0,0
		C65.2,468.7,63.4,470.5,61.2,470.5z"/>
	<path class="st1" d="M97.2,447.1H91c-2.2,0-4-1.8-4-4l0,0c0-2.2,1.8-4,4-4h6.2c2.2,0,4,1.8,4,4l0,0
		C101.2,445.3,99.4,447.1,97.2,447.1z"/>
	<circle class="st1" cx="301.9" cy="462.5" r="6.1"/>
	<path class="st1" d="M398,449.3h-39.3c-2.2,0-4-1.8-4-4l0,0c0-2.2,1.8-4,4-4H398c2.2,0,4,1.8,4,4l0,0
		C402,447.5,400.2,449.3,398,449.3z"/>
	<circle class="st1" cx="430" cy="445.4" r="6.1"/>
	<circle class="st1" cx="484.8" cy="460.7" r="6.1"/>
	<circle class="st1" cx="550.7" cy="442.7" r="6.1"/>
	<circle class="st1" cx="366.3" cy="464.2" r="6.9"/>
	<path class="st1" d="M454.5,469.3h-24.9c-2.2,0-4-1.8-4-4l0,0c0-2.2,1.8-4,4-4h24.9c2.2,0,4,1.8,4,4l0,0
		C458.5,467.5,456.7,469.3,454.5,469.3z"/>
	<circle class="st1" cx="404.3" cy="462.5" r="3.1"/>
	<path class="st1" d="M480.3,446.7h-16.8c-2.2,0-4-1.8-4-4l0,0c0-2.2,1.8-4,4-4h16.8c2.2,0,4,1.8,4,4l0,0
		C484.2,444.9,482.5,446.7,480.3,446.7z"/>
	<path class="st1" d="M536,469.5h-34.7c-2.2,0-4-1.8-4-4l0,0c0-2.2,1.8-4,4-4H536c2.2,0,4,1.8,4,4l0,0
		C540,467.8,538.2,469.5,536,469.5z"/>
	<circle class="st1" cx="514.8" cy="446.7" r="4.1"/>
	<path class="st1" d="M548.8,461.3h-13.4c-2.2,0-4-1.8-4-4l0,0c0-2.2,1.8-4,4-4h13.4c2.2,0,4,1.8,4,4l0,0
		C552.8,459.6,551,461.3,548.8,461.3z"/>
	<g>
		<path class="st2" d="M103,428.4H27.4l0,0c0-9.3,7.6-16.9,16.9-16.9H86C95.4,411.5,103,419.1,103,428.4L103,428.4z"/>
		<path class="st2" d="M393.8,428.4h-51.6l0,0c0-9.3,7.6-16.9,16.9-16.9h17.7C386.3,411.5,393.8,419.1,393.8,428.4L393.8,428.4z"/>
		<path class="st2" d="M531.5,428.4h-63.6l0,0c0-9.3,7.6-16.9,16.9-16.9h29.8C523.9,411.5,531.5,419.1,531.5,428.4L531.5,428.4z"/>
		<path class="st2" d="M162.6,428.4H97.2l0,0c0-9.3,7.6-16.9,16.9-16.9h31.6C155,411.5,162.6,419.1,162.6,428.4L162.6,428.4z"/>
		<path class="st2" d="M255,428.4h-60.7l0,0c0-9.3,7.6-16.9,16.9-16.9h26.9C247.4,411.5,255,419.1,255,428.4L255,428.4z"/>
		<path class="st2" d="M309.2,428.4h-62.1l0,0c0-9.3,7.6-16.9,16.9-16.9h28.3C301.7,411.5,309.2,419.1,309.2,428.4L309.2,428.4z"/>
		<path class="st2" d="M364.7,428.4h-70.4l0,0c0-9.3,7.6-16.9,16.9-16.9h36.6C357.1,411.5,364.7,419.1,364.7,428.4L364.7,428.4z"/>
		<path class="st2" d="M446.4,428.4h-63.6l0,0c0-9.3,7.6-16.9,16.9-16.9h29.8C438.8,411.5,446.4,419.1,446.4,428.4L446.4,428.4z"/>
		<path class="st2" d="M493.7,428.4H430l0,0c0-9.3,7.6-16.9,16.9-16.9h29.8C486.1,411.5,493.7,419.1,493.7,428.4L493.7,428.4z"/>
		<path class="st2" d="M556.9,428.4h-44.2l0,0c0-9.3,7.6-16.9,16.9-16.9H540C549.3,411.5,556.9,419.1,556.9,428.4L556.9,428.4z"/>
		<path class="st2" d="M210.4,428.4h-63.6l0,0c0-9.3,7.6-16.9,16.9-16.9h29.8C202.8,411.5,210.4,419.1,210.4,428.4L210.4,428.4z"/>
		<circle class="st3" cx="40.6" cy="421.1" r="1.2"/>
		<circle class="st3" cx="79.6" cy="425.4" r="1.1"/>
		<circle class="st3" cx="67.6" cy="416.1" r="1"/>
		<circle class="st3" cx="109.2" cy="417" r="1"/>
		<circle class="st3" cx="117.9" cy="425" r="1.5"/>
		<circle class="st3" cx="143.9" cy="417.3" r="1.3"/>
		<circle class="st3" cx="160.2" cy="417.3" r="1.3"/>
		<circle class="st3" cx="194.1" cy="416.6" r="1.4"/>
		<circle class="st3" cx="217.5" cy="425" r="1.5"/>
		<circle class="st3" cx="264.8" cy="418.6" r="2"/>
		<circle class="st3" cx="280.5" cy="424.7" r="1.1"/>
		<circle class="st3" cx="290.7" cy="417.3" r="1.3"/>
		<circle class="st3" cx="302.2" cy="423.9" r="1.1"/>
		<circle class="st3" cx="313.5" cy="416.7" r="1.9"/>
		<circle class="st3" cx="332.1" cy="424.7" r="1.1"/>
		<circle class="st3" cx="350.5" cy="420.3" r="1.7"/>
		<circle class="st3" cx="381.5" cy="417.8" r="1.7"/>
		<circle class="st3" cx="404.8" cy="417.3" r="1.3"/>
		<circle class="st3" cx="420.9" cy="424.7" r="1.1"/>
		<circle class="st3" cx="448.2" cy="416" r="1.8"/>
		<circle class="st3" cx="440.3" cy="426" r="1.3"/>
		<circle class="st3" cx="477.9" cy="418.8" r="1.5"/>
		<circle class="st3" cx="463.7" cy="422.9" r="1.8"/>
		<circle class="st3" cx="512.4" cy="417.8" r="1.7"/>
		<circle class="st3" cx="525.2" cy="424.7" r="1.7"/>
		<circle class="st3" cx="536.9" cy="416" r="1.7"/>
		<circle class="st3" cx="239.3" cy="415" r="1.1"/>
	</g>
	<path class="st4" d="M103.1,433.3H27.4V426c0-1.3,1.1-2.4,2.4-2.4h70.9c1.3,0,2.4,1.1,2.4,2.4V433.3z"/>
	<path class="st4" d="M178.4,433.3h-75.6V426c0-1.3,1.1-2.4,2.4-2.4H176c1.3,0,2.4,1.1,2.4,2.4V433.3z"/>
	<path class="st4" d="M254.2,433.3h-75.6V426c0-1.3,1.1-2.4,2.4-2.4h70.8c1.3,0,2.4,1.1,2.4,2.4V433.3z"/>
	<path class="st4" d="M329.4,433.3h-75.6V426c0-1.3,1.1-2.4,2.4-2.4H327c1.3,0,2.4,1.1,2.4,2.4V433.3z"/>
	<path class="st4" d="M405,433.3h-75.6V426c0-1.3,1.1-2.4,2.4-2.4h70.8c1.3,0,2.4,1.1,2.4,2.4V433.3z"/>
	<path class="st4" d="M480.3,433.3h-75.6V426c0-1.3,1.1-2.4,2.4-2.4h70.8c1.3,0,2.4,1.1,2.4,2.4V433.3z"/>
	<path class="st4" d="M556.9,433.3h-76V426c0-1.3,1.1-2.4,2.4-2.4h71.2c1.3,0,2.4,1.1,2.4,2.4V433.3z"/>
</g>
<rect x="35.3" y="348" class="st4" width="59.8" height="19.3"/>
<g>
	<g>
		<rect x="38.1" y="203" class="st4" width="54.2" height="139.7"/>
	</g>
	<path class="st5" d="M42.7,340h-1.5c-0.4,0-0.7-0.3-0.7-0.7V213.9c0-0.4,0.3-0.7,0.7-0.7h1.5c0.4,0,0.7,0.3,0.7,0.7v125.3
		C43.4,339.7,43.1,340,42.7,340z"/>
</g>
<g>
	<path class="st5" d="M39.1,364.9h-0.5c-0.6,0-1.1-0.5-1.1-1.1v-13.1c0-0.6,0.5-1.1,1.1-1.1h0.5c0.6,0,1.1,0.5,1.1,1.1v13.1
		C40.2,364.4,39.7,364.9,39.1,364.9z"/>
</g>
<g>
	
		<rect x="135.5" y="227.6" transform="matrix(-1 -8.978208e-11 8.978208e-11 -1 325.2 594.855)" class="st4" width="54.2" height="139.7"/>
	<path class="st5" d="M139.3,237.7h1.5c0.4,0,0.7,0.3,0.7,0.7v125.3c0,0.4-0.3,0.7-0.7,0.7h-1.5c-0.4,0-0.7-0.3-0.7-0.7V238.4
		C138.6,238,138.9,237.7,139.3,237.7z"/>
</g>
<g>
	
		<rect x="132.7" y="203.8" transform="matrix(-1 -8.979274e-11 8.979274e-11 -1 325.2 426.915)" class="st4" width="59.8" height="19.3"/>
	<path class="st5" d="M136.9,206.2h0.5c0.6,0,1.1,0.5,1.1,1.1v13.1c0,0.6-0.5,1.1-1.1,1.1h-0.5c-0.6,0-1.1-0.5-1.1-1.1v-13.1
		C135.8,206.7,136.3,206.2,136.9,206.2z"/>
</g>
<g>
	<rect x="27.4" y="523.3" class="st6" width="529.5" height="302.4"/>
	<g>
		<rect x="140.5" y="695" class="st7" width="34.6" height="130.7"/>
		<rect x="45" y="715.8" class="st8" width="40.8" height="109.9"/>
		<rect x="74.4" y="676" class="st9" width="69.3" height="149.8"/>
		<rect x="84.4" y="676" class="st10" width="69.3" height="149.8"/>
	</g>
	<g>
		<rect x="273.6" y="715.8" class="st9" width="68.3" height="109.9"/>
		<rect x="283.4" y="715.8" class="st10" width="68.3" height="109.9"/>
	</g>
	<g>
		<rect x="465.8" y="638.9" class="st9" width="68.3" height="186.8"/>
		<rect x="475.6" y="638.9" class="st10" width="68.3" height="186.8"/>
	</g>
</g>
</svg>
